<?xml version="1.0" encoding="UTF-8"?>
<svg width="702px" height="640px" viewBox="0 0 702 640" version="1.1" xmlns="http://www.w3.org/2000/svg" xmlns:xlink="http://www.w3.org/1999/xlink">
    <!-- Generator: Sketch 43.2 (39069) - http://www.bohemiancoding.com/sketch -->
    <title>Slice</title>
    <desc>Created with Sketch.</desc>
    <defs></defs>
    <g id="Page-1" stroke="none" stroke-width="1" fill="none" fill-rule="evenodd">
        <g id="Box" transform="translate(71.000000, 320.000000)" fill="#5BC0BE">
            <polygon id="Path" fill-opacity="0.8" points="0 80 140 0 280 80 140 160"></polygon>
            <polygon id="Path-2" fill-opacity="0.7" points="140.121094 160 140.121094 320 0 240 0 80"></polygon>
            <polygon id="Path-2" transform="translate(210.060547, 200.000000) scale(-1, 1) translate(-210.060547, -200.000000) " points="280.121094 160 280.121094 320 140 240 140 80"></polygon>
        </g>
        <g id="Box" transform="translate(212.000000, 0.000000)" fill="#3D315B">
            <polygon id="Path" fill-opacity="0.8" points="0 80 140 0 280 80 140 160"></polygon>
            <polygon id="Path-2" fill-opacity="0.7" points="140.121094 160 140.121094 320 0 240 0 80"></polygon>
            <polygon id="Path-2" transform="translate(210.060547, 200.000000) scale(-1, 1) translate(-210.060547, -200.000000) " points="280.121094 160 280.121094 320 140 240 140 80"></polygon>
        </g>
        <g id="Box" transform="translate(351.000000, 320.000000)" fill="#3A506B">
            <polygon id="Path" fill-opacity="0.8" points="0 80 140 0 280 80 140 160"></polygon>
            <polygon id="Path-2" fill-opacity="0.7" points="140.121094 160 140.121094 320 0 240 0 80"></polygon>
            <polygon id="Path-2" transform="translate(210.060547, 200.000000) scale(-1, 1) translate(-210.060547, -200.000000) " points="280.121094 160 280.121094 320 140 240 140 80"></polygon>
        </g>
        <path d="M15.89,286.3 L52.92,286.3 L52.92,301.365 L15.89,301.365 C15.3533306,301.365 15.085,301.633331 15.085,302.17 L15.085,353 L0.02,353 L0.02,302.17 C0.02,297.799978 1.57248447,294.062516 4.6775,290.9575 C7.78251552,287.852484 11.5199781,286.3 15.89,286.3 Z M112.49,286.3 C116.860022,286.3 120.597484,287.852484 123.7025,290.9575 C126.807516,294.062516 128.36,297.799978 128.36,302.17 L128.36,327.24 L75.69,327.24 L75.69,337.13 C75.69,337.666669 75.9583306,337.935 76.495,337.935 L128.36,337.935 L128.36,353 L76.495,353 C72.1249781,353 68.3875155,351.447516 65.2825,348.3425 C62.1774845,345.237484 60.625,341.500022 60.625,337.13 L60.625,302.17 C60.625,297.799978 62.1774845,294.062516 65.2825,290.9575 C68.3875155,287.852484 72.1249781,286.3 76.495,286.3 L112.49,286.3 Z M75.69,312.06 L113.295,312.06 L113.295,302.17 C113.295,301.633331 113.026669,301.365 112.49,301.365 L76.495,301.365 C75.9583306,301.365 75.69,301.633331 75.69,302.17 L75.69,312.06 Z M154.58,337.935 L206.445,337.935 L206.445,353 L154.58,353 C150.209978,353 146.472516,351.447516 143.3675,348.3425 C140.262484,345.237484 138.71,341.500022 138.71,337.13 L138.71,302.17 C138.71,297.799978 140.262484,294.062516 143.3675,290.9575 C146.472516,287.852484 150.209978,286.3 154.58,286.3 L206.215,286.3 L206.215,301.365 L154.58,301.365 C154.043331,301.365 153.775,301.633331 153.775,302.17 L153.775,337.13 C153.775,337.666669 154.043331,337.935 154.58,337.935 Z M231.86,286.3 L267.855,286.3 C272.225022,286.3 275.962484,287.852484 279.0675,290.9575 C282.172516,294.062516 283.725,297.799978 283.725,302.17 L283.725,337.13 C283.725,341.500022 282.172516,345.237484 279.0675,348.3425 C275.962484,351.447516 272.225022,353 267.855,353 L231.86,353 C227.489978,353 223.752516,351.447516 220.6475,348.3425 C217.542484,345.237484 215.99,341.500022 215.99,337.13 L215.99,302.17 C215.99,297.799978 217.542484,294.062516 220.6475,290.9575 C223.752516,287.852484 227.489978,286.3 231.86,286.3 Z M267.855,301.365 L231.86,301.365 C231.323331,301.365 231.055,301.633331 231.055,302.17 L231.055,337.13 C231.055,337.666669 231.323331,337.935 231.86,337.935 L267.855,337.935 C268.391669,337.935 268.66,337.666669 268.66,337.13 L268.66,302.17 C268.66,301.633331 268.391669,301.365 267.855,301.365 Z M378.6,286.3 C382.970022,286.3 386.707484,287.852484 389.8125,290.9575 C392.917516,294.062516 394.47,297.799978 394.47,302.17 L394.47,353 L379.52,353 L379.52,302.17 C379.52,301.633331 379.213336,301.365 378.6,301.365 L353.53,301.365 C353.069998,301.365 352.84,301.633331 352.84,302.17 L352.84,353 L337.66,353 L337.66,302.17 C337.66,301.633331 337.430002,301.365 336.97,301.365 L311.785,301.365 C311.248331,301.365 310.98,301.633331 310.98,302.17 L310.98,353 L295.915,353 L295.915,286.3 L378.6,286.3 Z M455.305,286.3 C459.675022,286.3 463.412484,287.852484 466.5175,290.9575 C469.622516,294.062516 471.175,297.799978 471.175,302.17 L471.175,337.13 C471.175,341.500022 469.622516,345.237484 466.5175,348.3425 C463.412484,351.447516 459.675022,353 455.305,353 L418.505,353 L418.505,379.45 L403.44,379.45 L403.44,286.3 L455.305,286.3 Z M456.11,337.13 L456.11,302.17 C456.11,301.633331 455.841669,301.365 455.305,301.365 L419.31,301.365 C418.773331,301.365 418.505,301.633331 418.505,302.17 L418.505,337.13 C418.505,337.666669 418.773331,337.935 419.31,337.935 L455.305,337.935 C455.841669,337.935 456.11,337.666669 456.11,337.13 Z M495.325,286.3 L531.32,286.3 C535.690022,286.3 539.427484,287.852484 542.5325,290.9575 C545.637516,294.062516 547.19,297.799978 547.19,302.17 L547.19,337.13 C547.19,341.500022 545.637516,345.237484 542.5325,348.3425 C539.427484,351.447516 535.690022,353 531.32,353 L495.325,353 C490.954978,353 487.217516,351.447516 484.1125,348.3425 C481.007484,345.237484 479.455,341.500022 479.455,337.13 L479.455,302.17 C479.455,297.799978 481.007484,294.062516 484.1125,290.9575 C487.217516,287.852484 490.954978,286.3 495.325,286.3 Z M531.32,301.365 L495.325,301.365 C494.788331,301.365 494.52,301.633331 494.52,302.17 L494.52,337.13 C494.52,337.666669 494.788331,337.935 495.325,337.935 L531.32,337.935 C531.856669,337.935 532.125,337.666669 532.125,337.13 L532.125,302.17 C532.125,301.633331 531.856669,301.365 531.32,301.365 Z M624.01,302.17 L624.01,305.045 L608.945,305.045 L608.945,302.17 C608.945,301.633331 608.676669,301.365 608.14,301.365 L572.145,301.365 C571.608331,301.365 571.34,301.633331 571.34,302.17 L571.34,311.37 C571.34,311.830002 571.608331,312.06 572.145,312.06 L608.14,312.06 C612.586689,312.06 616.343318,313.612484 619.41,316.7175 C622.476682,319.822516 624.01,323.559978 624.01,327.93 L624.01,337.13 C624.01,341.500022 622.476682,345.237484 619.41,348.3425 C616.343318,351.447516 612.586689,353 608.14,353 L572.145,353 C567.774978,353 564.037516,351.447516 560.9325,348.3425 C557.827484,345.237484 556.275,341.500022 556.275,337.13 L556.275,334.255 L571.34,334.255 L571.34,337.13 C571.34,337.666669 571.608331,337.935 572.145,337.935 L608.14,337.935 C608.676669,337.935 608.945,337.666669 608.945,337.13 L608.945,327.93 C608.945,327.469998 608.676669,327.24 608.14,327.24 L572.145,327.24 C567.774978,327.24 564.037516,325.687516 560.9325,322.5825 C557.827484,319.477484 556.275,315.740022 556.275,311.37 L556.275,302.17 C556.275,297.799978 557.827484,294.062516 560.9325,290.9575 C564.037516,287.852484 567.774978,286.3 572.145,286.3 L608.14,286.3 C612.586689,286.3 616.343318,287.852484 619.41,290.9575 C622.476682,294.062516 624.01,297.799978 624.01,302.17 Z M686.11,286.3 C690.480022,286.3 694.217484,287.852484 697.3225,290.9575 C700.427516,294.062516 701.98,297.799978 701.98,302.17 L701.98,327.24 L649.31,327.24 L649.31,337.13 C649.31,337.666669 649.578331,337.935 650.115,337.935 L701.98,337.935 L701.98,353 L650.115,353 C645.744978,353 642.007516,351.447516 638.9025,348.3425 C635.797484,345.237484 634.245,341.500022 634.245,337.13 L634.245,302.17 C634.245,297.799978 635.797484,294.062516 638.9025,290.9575 C642.007516,287.852484 645.744978,286.3 650.115,286.3 L686.11,286.3 Z M649.31,312.06 L686.915,312.06 L686.915,302.17 C686.915,301.633331 686.646669,301.365 686.11,301.365 L650.115,301.365 C649.578331,301.365 649.31,301.633331 649.31,302.17 L649.31,312.06 Z" id="Recompose" fill="#E96C6C"></path>
    </g>
</svg>